<svg xmlns="http://www.w3.org/2000/svg" width="520" height="145" viewBox="0 0 520 145" role="img" aria-label="NOSHE 2025 NTPC Conference on Occupational Safety Health and Environment">
  <rect width="520" height="145" fill="#ffffff"/>
  <g opacity=".42" fill="#dfe4ee">
    <circle cx="20" cy="17" r="17"/><circle cx="61" cy="16" r="13"/><circle cx="103" cy="17" r="15"/>
    <circle cx="424" cy="19" r="15"/><circle cx="466" cy="16" r="12"/><circle cx="505" cy="18" r="18"/>
    <circle cx="28" cy="126" r="14"/><circle cx="475" cy="126" r="14"/><circle cx="512" cy="126" r="10"/>
  </g>
  <g transform="translate(16 22)">
    <circle cx="50" cy="50" r="48" fill="#ffffff" stroke="#29a7dc" stroke-width="5"/>
    <path d="M14 71c24 12 50 12 78-6-12 25-42 36-70 24z" fill="#176bb2"/>
    <path d="M19 51c12-33 36-39 46-26-20 1-31 17-35 38z" fill="#73bd37"/>
    <path d="M45 18c16 12 22 30 16 55 23-16 29-49 5-66z" fill="#f6b21a"/>
    <path d="M5 57c11-20 23-24 35-14-16 5-24 17-26 32z" fill="#f27621"/>
    <circle cx="69" cy="32" r="13" fill="#cf2437"/>
    <path d="M36 73c17-3 34-11 50-26" stroke="#2aa8dc" stroke-width="7" stroke-linecap="round"/>
  </g>
  <g font-family="Arial, Helvetica, sans-serif">
    <text x="129" y="56" font-size="54" font-weight="900" fill="#245cc4">N</text>
    <text x="170" y="56" font-size="54" font-weight="900" fill="#7c1dc9">O</text>
    <text x="213" y="56" font-size="54" font-weight="900" fill="#245cc4">SHE 2025</text>
    <text x="130" y="86" font-size="23" font-weight="900" fill="#111111">NTPC Conference on </text>
    <text x="350" y="86" font-size="23" font-weight="900" fill="#f27621">Occupational</text>
    <text x="130" y="113" font-size="22" font-weight="900" fill="#f27621">Safety, </text>
    <text x="203" y="113" font-size="22" font-weight="900" fill="#245cc4">Health </text>
    <text x="282" y="113" font-size="22" font-weight="900" fill="#111111">and </text>
    <text x="329" y="113" font-size="22" font-weight="900" fill="#54a927">Environment</text>
  </g>
  <line x1="130" y1="124" x2="497" y2="124" stroke="#f4b400" stroke-width="3"/>
</svg>
